<?xml version="1.0" standalone="no"?>
<!DOCTYPE svg PUBLIC "-//W3C//DTD SVG 20010904//EN"
 "http://www.w3.org/TR/2001/REC-SVG-20010904/DTD/svg10.dtd">
<svg version="1.0" xmlns="http://www.w3.org/2000/svg"
 width="1920.000000pt" height="1920.000000pt" viewBox="0 0 1920.000000 1920.000000"
 preserveAspectRatio="xMidYMid meet">

<g transform="translate(0.000000,1920.000000) scale(0.100000,-0.100000)"
fill="#000000" stroke="none">
<path d="M5996 14029 c-14 -11 -26 -26 -26 -33 0 -7 -8 -21 -18 -32 -9 -10
-28 -40 -41 -66 -13 -27 -28 -48 -33 -48 -4 0 -8 -6 -8 -14 0 -7 -7 -19 -15
-26 -9 -7 -25 -32 -36 -54 -11 -23 -33 -59 -50 -81 -16 -22 -38 -58 -49 -81
-10 -22 -26 -47 -35 -54 -8 -7 -15 -18 -15 -25 0 -6 -9 -20 -20 -30 -11 -10
-20 -24 -20 -30 0 -7 -7 -18 -15 -25 -9 -7 -25 -32 -35 -55 -10 -23 -26 -48
-35 -55 -8 -7 -15 -18 -15 -25 0 -7 -7 -18 -15 -25 -8 -7 -26 -36 -41 -66 -14
-30 -30 -54 -35 -54 -5 0 -9 -6 -9 -13 0 -8 -9 -22 -20 -32 -11 -10 -20 -24
-20 -30 0 -7 -7 -18 -15 -25 -9 -7 -25 -33 -35 -56 -11 -24 -24 -46 -30 -49
-5 -3 -17 -21 -26 -40 -9 -19 -20 -35 -25 -35 -5 0 -9 -6 -9 -14 0 -7 -7 -19
-15 -26 -9 -7 -25 -33 -35 -56 -11 -24 -24 -46 -30 -49 -5 -3 -17 -21 -26 -40
-9 -19 -20 -35 -25 -35 -5 0 -9 -6 -9 -13 0 -7 -8 -22 -18 -33 -10 -10 -25
-35 -35 -55 -9 -20 -23 -42 -32 -49 -18 -15 -20 -61 -3 -78 9 -9 1044 -12
4595 -12 4827 0 4618 -2 4568 40 -8 7 -15 18 -15 25 0 7 -7 18 -15 25 -9 7
-25 32 -35 55 -10 23 -26 48 -35 55 -8 7 -15 19 -15 26 0 8 -4 14 -9 14 -5 0
-16 16 -25 35 -9 19 -21 37 -26 40 -6 3 -19 25 -30 49 -10 23 -26 49 -35 56
-8 7 -15 19 -15 26 0 8 -4 14 -8 14 -5 0 -20 21 -33 48 -13 26 -32 56 -41 66
-10 11 -18 25 -18 31 0 7 -9 20 -20 30 -11 10 -20 23 -20 30 0 7 -9 20 -20 30
-11 10 -20 24 -20 32 0 7 -4 13 -10 13 -5 0 -10 9 -10 20 0 11 -4 20 -9 20 -5
0 -16 16 -25 35 -9 19 -21 37 -26 40 -6 3 -19 25 -30 49 -10 23 -26 49 -35 56
-8 7 -15 18 -15 25 0 6 -9 20 -20 30 -11 10 -20 23 -20 30 0 7 -9 20 -20 30
-11 10 -20 24 -20 30 0 7 -7 18 -15 25 -9 7 -25 32 -35 54 -11 23 -33 59 -49
81 -17 22 -38 56 -48 75 -9 19 -25 44 -35 54 -10 11 -18 25 -18 32 0 6 -7 17
-15 24 -9 7 -23 29 -32 49 -10 20 -25 45 -35 55 -10 11 -18 25 -18 32 0 7 -12
22 -26 33 l-27 21 -3567 0 -3567 0 -27 -21z"/>
<path d="M6033 10754 c-3 -8 4 -25 16 -38 11 -12 21 -28 21 -34 0 -7 4 -12 9
-12 5 0 21 -24 35 -54 15 -30 33 -59 41 -66 8 -7 15 -18 15 -25 0 -7 7 -18 15
-25 9 -7 25 -32 35 -55 10 -23 26 -48 35 -55 8 -7 15 -18 15 -25 0 -6 9 -20
20 -30 11 -10 20 -24 20 -30 0 -7 7 -18 15 -25 9 -7 25 -32 35 -55 10 -23 26
-48 35 -55 8 -7 15 -18 15 -25 0 -6 9 -20 20 -30 11 -10 20 -24 20 -32 0 -7 4
-13 8 -13 5 0 20 -21 33 -47 13 -27 32 -57 41 -67 10 -11 18 -26 18 -33 0 -7
4 -13 9 -13 5 0 16 -15 25 -34 8 -18 22 -39 31 -46 8 -7 15 -19 15 -26 0 -8 5
-14 10 -14 6 0 10 -8 10 -18 0 -11 9 -27 20 -37 11 -10 20 -24 20 -30 0 -7 7
-18 15 -25 9 -7 24 -32 35 -54 10 -23 28 -50 40 -61 12 -11 30 -38 40 -61 11
-22 26 -47 35 -54 8 -7 15 -18 15 -25 0 -6 9 -20 20 -30 11 -10 20 -24 20 -30
0 -7 7 -18 15 -25 9 -7 25 -32 35 -55 10 -23 26 -48 35 -55 8 -7 15 -19 15
-26 0 -8 4 -14 8 -14 5 0 20 -21 33 -47 13 -27 32 -57 41 -67 10 -11 18 -25
18 -31 0 -7 9 -20 20 -30 11 -10 20 -23 20 -30 0 -7 9 -20 20 -30 11 -10 20
-24 20 -32 0 -7 4 -13 9 -13 5 0 21 -24 35 -54 15 -30 33 -59 41 -66 8 -7 15
-18 15 -25 0 -7 7 -18 15 -25 9 -7 25 -32 35 -55 10 -23 26 -48 35 -55 8 -7
15 -18 15 -25 0 -6 9 -20 20 -30 11 -10 20 -24 20 -30 0 -7 7 -18 15 -25 9 -7
23 -29 32 -49 17 -37 48 -85 70 -109 7 -7 20 -30 30 -50 10 -20 25 -46 35 -56
10 -11 18 -26 18 -33 0 -7 4 -13 9 -13 5 0 16 -15 25 -34 8 -18 22 -39 31 -46
8 -7 15 -18 15 -25 0 -7 7 -18 15 -25 9 -7 25 -32 35 -55 10 -23 26 -48 35
-55 8 -7 15 -18 15 -25 0 -7 7 -18 15 -25 9 -7 25 -32 35 -55 10 -23 26 -48
35 -55 8 -7 15 -18 15 -25 0 -6 9 -20 20 -30 11 -10 20 -24 20 -30 0 -7 7 -18
15 -25 9 -7 25 -32 35 -55 10 -23 26 -48 35 -55 8 -7 15 -16 15 -21 0 -4 14
-28 30 -52 17 -25 30 -49 30 -54 0 -6 9 -18 20 -28 11 -10 20 -23 20 -30 0 -7
9 -20 20 -30 11 -10 20 -24 20 -30 0 -7 7 -18 15 -25 9 -7 23 -29 32 -49 10
-20 25 -45 35 -55 10 -11 18 -24 18 -28 0 -5 5 -14 10 -21 24 -29 61 -85 79
-123 11 -22 27 -47 36 -54 8 -7 15 -18 15 -25 0 -6 9 -20 20 -30 11 -10 20
-24 20 -30 0 -7 7 -18 15 -25 9 -7 23 -29 32 -49 10 -20 25 -45 35 -55 10 -11
18 -25 18 -31 0 -7 9 -20 20 -30 11 -10 20 -23 21 -29 0 -6 16 -31 34 -56 19
-25 44 -64 55 -87 11 -23 24 -45 30 -48 6 -3 19 -25 30 -49 10 -23 26 -49 35
-56 8 -7 15 -18 15 -25 0 -6 9 -20 20 -30 11 -10 20 -23 20 -30 0 -7 9 -20 20
-30 11 -10 20 -24 20 -30 0 -7 7 -18 15 -25 9 -7 25 -32 35 -55 10 -23 26 -48
35 -55 8 -7 15 -19 15 -26 0 -8 4 -14 8 -14 5 0 20 -21 33 -47 13 -27 32 -57
41 -67 10 -11 18 -26 18 -33 0 -7 4 -13 9 -13 5 0 16 -16 25 -35 9 -19 21 -37
26 -40 6 -3 19 -25 30 -49 10 -23 26 -49 35 -56 8 -7 15 -18 15 -25 0 -6 9
-20 20 -30 11 -10 20 -24 20 -32 0 -7 4 -13 9 -13 5 0 21 -24 35 -54 15 -30
33 -59 41 -66 8 -7 15 -19 15 -26 0 -8 4 -14 9 -14 5 0 16 -16 25 -35 9 -19
21 -37 26 -40 6 -3 19 -25 30 -49 10 -23 26 -49 35 -56 8 -7 15 -19 15 -26 0
-8 4 -14 9 -14 5 0 16 -16 25 -35 22 -47 55 -64 73 -39 7 10 13 23 13 29 0 7
9 20 20 30 11 10 20 23 20 30 0 7 9 20 20 30 11 10 20 24 20 30 0 7 7 18 15
25 9 7 25 32 35 55 10 23 26 48 35 55 8 7 15 18 15 25 0 7 7 18 15 25 8 7 26
36 41 66 14 30 30 54 35 54 5 0 9 6 9 14 0 7 7 19 15 26 9 7 23 28 31 46 9 19
20 34 25 34 5 0 9 6 9 13 0 7 8 22 18 33 9 10 28 40 41 67 13 26 27 47 31 47
4 0 10 8 14 18 3 9 19 35 36 57 17 22 39 59 50 82 11 23 26 47 33 55 7 7 20
29 30 49 9 20 23 42 32 49 8 7 15 18 15 25 0 7 7 18 15 25 9 7 23 28 31 46 9
19 20 34 25 34 5 0 9 6 9 14 0 7 7 19 15 26 8 7 26 36 41 66 14 30 30 54 35
54 5 0 9 6 9 13 0 8 9 22 20 32 11 10 20 24 20 30 0 7 7 18 15 25 9 7 23 29
32 49 9 20 24 45 33 56 29 34 32 71 11 118 -11 24 -27 50 -36 57 -8 7 -15 18
-15 25 0 6 -9 20 -20 30 -11 10 -20 24 -20 30 0 7 -7 18 -15 25 -9 7 -25 32
-35 55 -10 23 -26 48 -35 55 -8 7 -15 18 -16 24 0 6 -16 31 -34 56 -19 25 -43
63 -54 86 -11 22 -27 47 -36 54 -8 7 -15 19 -15 26 0 8 -4 14 -9 14 -5 0 -16
16 -25 35 -9 19 -21 37 -26 40 -5 3 -17 23 -27 43 -9 20 -25 46 -35 56 -10 11
-18 25 -18 31 0 7 -9 20 -20 30 -11 10 -20 23 -20 30 0 7 -9 20 -20 30 -11 10
-20 24 -20 30 0 7 -7 18 -15 25 -9 7 -25 32 -35 55 -10 23 -26 48 -35 55 -8 7
-15 18 -15 25 0 6 -9 20 -20 30 -11 10 -20 24 -20 30 0 7 -7 18 -15 25 -9 7
-23 29 -32 49 -18 39 -47 83 -75 115 -10 11 -18 25 -18 32 0 6 -7 17 -15 24
-9 7 -25 32 -35 55 -10 23 -26 48 -35 55 -8 7 -15 19 -15 26 0 8 -4 14 -9 14
-5 0 -16 15 -25 34 -8 18 -22 39 -31 46 -8 7 -15 19 -15 26 0 8 -4 14 -10 14
-5 0 -10 8 -10 18 0 11 -9 27 -20 37 -11 10 -20 23 -20 30 0 7 -9 20 -20 30
-11 10 -20 24 -20 30 0 7 -7 18 -15 25 -14 12 -65 107 -65 122 0 5 -21 41 -47
81 -64 98 -71 108 -91 140 -9 16 -36 54 -58 86 -55 76 -63 101 -32 101 13 0
678 1 1478 0 1141 0 1458 3 1470 13 9 6 24 28 33 47 10 19 31 53 47 75 17 22
42 64 56 93 15 28 30 52 35 52 5 0 9 6 9 13 0 8 9 22 20 32 11 10 20 23 20 30
0 7 9 20 20 30 11 10 20 24 20 30 0 7 7 18 15 25 9 7 25 32 35 55 10 23 26 48
35 55 8 7 15 18 15 25 0 6 9 20 20 30 11 10 20 26 20 37 0 10 5 18 10 18 6 0
10 6 10 13 0 8 9 22 20 32 11 10 20 24 20 30 0 7 7 18 15 25 9 7 25 32 36 54
17 35 40 72 76 122 5 5 13 17 18 26 6 9 24 36 40 59 17 24 41 65 54 92 13 26
28 47 33 47 4 0 8 6 8 13 0 8 9 22 20 32 11 10 20 24 20 30 0 7 7 18 15 25 8
7 26 36 41 66 14 30 30 54 35 54 5 0 9 6 9 14 0 7 7 19 15 26 9 7 25 32 35 55
10 23 26 48 35 55 8 7 15 17 15 23 0 6 10 21 21 33 12 13 19 30 16 38 -6 14
-358 16 -3557 16 -3199 0 -3551 -2 -3557 -16z"/>
</g>
</svg>
