<svg width="54" height="54" viewBox="0 0 54 54" fill="none" xmlns="http://www.w3.org/2000/svg">
<rect width="54" height="54" rx="10" fill="white"/>
<path fill-rule="evenodd" clip-rule="evenodd" d="M39.8574 31.6165L45.0157 26.9109L42.5723 22.043L39.8574 31.6165Z" fill="#097939"/>
<path fill-rule="evenodd" clip-rule="evenodd" d="M38.1201 31.6167L43.2784 26.9112L40.835 22.0432L38.1201 31.6167Z" fill="#ED752E"/>
<path fill-rule="evenodd" clip-rule="evenodd" d="M13.4692 22.0977L11.2974 29.8322L19.0075 29.8862L21.1252 22.0977H23.0798L20.5407 31.1522C20.4434 31.4979 20.0732 31.7789 19.7141 31.7789H9.83157C9.23226 31.7789 8.87714 31.3106 9.03921 30.7344L11.461 22.0977H13.4692ZM37.3056 22.0436H39.2602L36.5453 31.7789H34.5355L37.3056 22.0436ZM23.2974 26.0998L33.0708 26.0458L33.7227 23.9903H23.7857L24.3829 22.0973L34.9717 22.0001C35.6308 21.9939 36.0234 22.5043 35.8498 23.1407L34.8521 26.787C34.6782 27.423 34.0021 27.9384 33.343 27.9384H24.6004L23.5696 31.9409H21.668L23.2974 26.0998Z" fill="#666666"/>
</svg>
